<svg xmlns="http://www.w3.org/2000/svg" version="1.1" xmlns:xlink="http://www.w3.org/1999/xlink" xmlns:svgjs="http://svgjs.dev/svgjs" width="1000" height="1000"><style>
    #light-icon {
      display: inline;
    }
    #dark-icon {
      display: none;
    }

    @media (prefers-color-scheme: dark) {
      #light-icon {
        display: none;
      }
      #dark-icon {
        display: inline;
      }
    }
  </style><g id="light-icon"><svg xmlns="http://www.w3.org/2000/svg" version="1.1" xmlns:xlink="http://www.w3.org/1999/xlink" xmlns:svgjs="http://svgjs.dev/svgjs" width="1000" height="1000"><g><g transform="matrix(1,0,0,1,0,0)"><svg xmlns="http://www.w3.org/2000/svg" version="1.1" xmlns:xlink="http://www.w3.org/1999/xlink" xmlns:svgjs="http://svgjs.dev/svgjs" width="1000" height="1000"><svg width="1000" height="1000" viewBox="0 0 1000 1000" fill="none" xmlns="http://www.w3.org/2000/svg">
<rect width="1000" height="1000" fill="#76A34E"></rect>
<path d="M399.7 415.5C406.233 365.1 421.4 326.367 445.2 299.3C469.467 271.767 501.2 258 540.4 258C579.6 258 599.2 271.533 599.2 298.6C599.2 316.8 594.767 333.6 585.9 349C577.5 363.933 566.067 376.533 551.6 386.8C523.133 405.933 489.767 419.7 451.5 428.1C442.167 508.367 428.4 565.767 410.2 600.3C453.133 614.767 482.067 624.1 497 628.3C511.933 632.033 527.567 633.9 543.9 633.9C560.7 633.9 572.133 627.133 578.2 613.6C584.267 600.067 588.7 593.3 591.5 593.3C597.1 593.3 599.9 596.8 599.9 603.8C599.9 625.733 591.733 644.4 575.4 659.8C559.067 675.2 541.333 682.9 522.2 682.9C502.6 682.9 484.867 679.633 469 673.1C453.133 666.567 443.1 662.367 438.9 660.5C434.7 658.633 426.067 654.667 413 648.6C400.4 642.533 391.533 638.333 386.4 636C368.667 654.667 344.867 664 315 664C302.867 664 292.133 659.567 282.8 650.7C273.467 641.833 268.8 631.333 268.8 619.2C268.8 592.6 283.967 579.3 314.3 579.3C327.367 579.3 345.567 582.333 368.9 588.4C377.767 560.4 387.1 509.533 396.9 435.8C391.767 436.267 384.767 436.5 375.9 436.5C367.5 436.5 363.3 435.1 363.3 432.3C363.3 423.433 375.433 417.833 399.7 415.5ZM453.6 407.8C483.467 401.267 507.967 390.3 527.1 374.9C546.7 359.033 556.5 338.5 556.5 313.3C556.5 288.1 547.867 275.5 530.6 275.5C492.8 275.5 467.133 319.6 453.6 407.8ZM352.8 621.3C325.733 609.633 308.933 603.8 302.4 603.8C296.333 603.8 293.3 607.067 293.3 613.6C293.3 620.133 296.1 625.733 301.7 630.4C307.767 635.067 315.467 637.4 324.8 637.4C334.133 637.4 343.467 632.033 352.8 621.3Z" fill="#2A3322"></path>
</svg></svg></g></g></svg></g><g id="dark-icon"><svg xmlns="http://www.w3.org/2000/svg" version="1.1" xmlns:xlink="http://www.w3.org/1999/xlink" xmlns:svgjs="http://svgjs.dev/svgjs" width="1000" height="1000"><g><g transform="matrix(1,0,0,1,0,0)"><svg xmlns="http://www.w3.org/2000/svg" version="1.1" xmlns:xlink="http://www.w3.org/1999/xlink" xmlns:svgjs="http://svgjs.dev/svgjs" width="1000" height="1000"><svg width="1000" height="1000" viewBox="0 0 1000 1000" fill="none" xmlns="http://www.w3.org/2000/svg">
<rect width="1000" height="1000" fill="#10130D"></rect>
<path d="M399.7 415.5C406.233 365.1 421.4 326.367 445.2 299.3C469.467 271.767 501.2 258 540.4 258C579.6 258 599.2 271.533 599.2 298.6C599.2 316.8 594.767 333.6 585.9 349C577.5 363.933 566.067 376.533 551.6 386.8C523.133 405.933 489.767 419.7 451.5 428.1C442.167 508.367 428.4 565.767 410.2 600.3C453.133 614.767 482.067 624.1 497 628.3C511.933 632.033 527.567 633.9 543.9 633.9C560.7 633.9 572.133 627.133 578.2 613.6C584.267 600.067 588.7 593.3 591.5 593.3C597.1 593.3 599.9 596.8 599.9 603.8C599.9 625.733 591.733 644.4 575.4 659.8C559.067 675.2 541.333 682.9 522.2 682.9C502.6 682.9 484.867 679.633 469 673.1C453.133 666.567 443.1 662.367 438.9 660.5C434.7 658.633 426.067 654.667 413 648.6C400.4 642.533 391.533 638.333 386.4 636C368.667 654.667 344.867 664 315 664C302.867 664 292.133 659.567 282.8 650.7C273.467 641.833 268.8 631.333 268.8 619.2C268.8 592.6 283.967 579.3 314.3 579.3C327.367 579.3 345.567 582.333 368.9 588.4C377.767 560.4 387.1 509.533 396.9 435.8C391.767 436.267 384.767 436.5 375.9 436.5C367.5 436.5 363.3 435.1 363.3 432.3C363.3 423.433 375.433 417.833 399.7 415.5ZM453.6 407.8C483.467 401.267 507.967 390.3 527.1 374.9C546.7 359.033 556.5 338.5 556.5 313.3C556.5 288.1 547.867 275.5 530.6 275.5C492.8 275.5 467.133 319.6 453.6 407.8ZM352.8 621.3C325.733 609.633 308.933 603.8 302.4 603.8C296.333 603.8 293.3 607.067 293.3 613.6C293.3 620.133 296.1 625.733 301.7 630.4C307.767 635.067 315.467 637.4 324.8 637.4C334.133 637.4 343.467 632.033 352.8 621.3Z" fill="#EBF7DF"></path>
</svg></svg></g></g></svg></g></svg>